<svg xmlns="http://www.w3.org/2000/svg" width="760" height="430" viewBox="0 0 760 430">
    <rect width="100%" height="100%" fill="#ffffff"/>
    <text x="380.0" y="28" text-anchor="middle" font-family="Arial" font-size="22" font-weight="700">ALT fold-change by synthetic compound class</text>
    <line x1="80" y1="55" x2="80" y2="360" stroke="#333"/>
    <line x1="80" y1="360" x2="740" y2="360" stroke="#333"/>
    <text x="380.0" y="425" text-anchor="middle" font-family="Arial" font-size="14">Compound class</text>
    <text x="18" y="215.0" text-anchor="middle" font-family="Arial" font-size="14" transform="rotate(-90 18,215.0)">Mean ALT fold-change</text>
    <text x="80" y="39" font-family="Arial" font-size="12" fill="#555">Synthetic n=100; toxicity threshold is fold-change > 3</text>
    <rect x="104.4" y="133.1" width="113.7" height="226.9" fill="#2c7fb8"/><text x="161.2" y="127.1" font-size="11" text-anchor="middle" font-family="Arial">4.5</text><text x="161.2" y="395" font-size="12" text-anchor="middle" transform="rotate(35 161.2,395)">A</text><rect x="266.9" y="55.0" width="113.7" height="305.0" fill="#2c7fb8"/><text x="323.8" y="49.0" font-size="11" text-anchor="middle" font-family="Arial">6.1</text><text x="323.8" y="395" font-size="12" text-anchor="middle" transform="rotate(35 323.8,395)">B</text><rect x="429.4" y="172.5" width="113.7" height="187.5" fill="#2c7fb8"/><text x="486.2" y="166.5" font-size="11" text-anchor="middle" font-family="Arial">3.7</text><text x="486.2" y="395" font-size="12" text-anchor="middle" transform="rotate(35 486.2,395)">C</text><rect x="591.9" y="95.1" width="113.7" height="264.9" fill="#2c7fb8"/><text x="648.8" y="89.1" font-size="11" text-anchor="middle" font-family="Arial">5.3</text><text x="648.8" y="395" font-size="12" text-anchor="middle" transform="rotate(35 648.8,395)">D</text>
    </svg>